<?xml version="1.0" encoding="UTF-8"?><svg id="uuid-48c47a34-3314-4f79-9c93-bfbb2b207b02" xmlns="http://www.w3.org/2000/svg" width="69.39" height="69.39" viewBox="0 0 69.39 69.39"><g id="uuid-5910389c-022c-49a1-984d-0eb095cda2fc"><g><path d="m69.39,34.69C69.39,15.53,53.85,0,34.69,0S0,15.53,0,34.69c0,17.32,12.69,31.67,29.27,34.27v-24.24h-8.81v-10.03h8.81v-7.64c0-8.69,5.18-13.5,13.1-13.5,3.8,0,7.77.68,7.77.68v8.54h-4.37c-4.31,0-5.65,2.67-5.65,5.42v6.51h9.62l-1.54,10.03h-8.08v24.24c16.59-2.6,29.27-16.96,29.27-34.27Z" fill="#1877f2"/><path d="m48.2,44.72l1.54-10.03h-9.62v-6.51c0-2.74,1.34-5.42,5.65-5.42h4.37v-8.54s-3.97-.68-7.77-.68c-7.92,0-13.1,4.8-13.1,13.5v7.64h-8.81v10.03h8.81v24.24c1.77.28,3.58.42,5.42.42s3.65-.14,5.42-.42v-24.24h8.08Z" fill="#fff"/></g></g></svg>