<?xml version="1.0" encoding="utf-8"?>
<!-- Generator: Adobe Illustrator 27.2.0, SVG Export Plug-In . SVG Version: 6.00 Build 0)  -->
<svg version="1.1" id="_レイヤー_2" xmlns="http://www.w3.org/2000/svg" xmlns:xlink="http://www.w3.org/1999/xlink" x="0px"
	 y="0px" viewBox="0 0 14.6 13.2" style="enable-background:new 0 0 14.6 13.2;" xml:space="preserve">
<style type="text/css">
	.st0{fill:#231815;stroke:#040000;stroke-width:0.17;stroke-miterlimit:10;}
</style>
<g id="_レイヤー_1-2">
	<path class="st0" d="M7.2,13.1C6.5,12.5,4,10,2.7,8.6C1.4,7.1,0.1,5.5,0.1,3.4c0-1.8,1.5-3.3,3.5-3.3c1.7,0,3.1,0.9,3.7,2.5l0,0
		c0.6-1.7,2-2.5,3.7-2.5c1.9,0,3.5,1.5,3.5,3.3c0,2.2-1.3,3.7-2.6,5.2C10.5,10,7.9,12.5,7.2,13.1L7.2,13.1z M6.8,3.5
		C6.4,1.5,5,0.7,3.5,0.7C1.8,0.7,0.7,2,0.7,3.4c0,2,1.2,3.5,2.5,4.9c1.1,1.3,3.3,3.4,4,4l0,0c0.6-0.6,2.8-2.7,4-4
		c1.3-1.4,2.5-2.9,2.5-4.9c0-1.4-1.1-2.7-2.8-2.7C9.4,0.7,8,1.5,7.6,3.5H6.8L6.8,3.5z"/>
</g>
</svg>
