<?xml version="1.0" encoding="UTF-8"?><svg id="uuid-ffc82b37-0fa2-4e3c-aeea-c61669f25b9e" xmlns="http://www.w3.org/2000/svg" width="70" height="70" viewBox="0 0 70 70"><g id="uuid-73a675bc-3eaf-4a21-98b7-4b10498fbcd8"><g><path d="m35,6.31c9.35,0,10.45.04,14.14.2,3.41.16,5.27.73,6.5,1.21,1.63.63,2.8,1.39,4.02,2.62,1.22,1.22,1.98,2.39,2.62,4.02.48,1.23,1.05,3.09,1.21,6.5.17,3.69.2,4.8.2,14.14s-.04,10.45-.2,14.14c-.16,3.41-.73,5.27-1.21,6.5-.63,1.63-1.39,2.8-2.62,4.02s-2.39,1.98-4.02,2.62c-1.23.48-3.09,1.05-6.5,1.21-3.69.17-4.8.2-14.14.2s-10.45-.04-14.14-.2c-3.41-.16-5.27-.73-6.5-1.21-1.63-.63-2.8-1.39-4.02-2.62-1.22-1.22-1.98-2.39-2.62-4.02-.48-1.23-1.05-3.09-1.21-6.5-.17-3.69-.2-4.8-.2-14.14s.04-10.45.2-14.14c.16-3.41.73-5.27,1.21-6.5.63-1.63,1.39-2.8,2.62-4.02s2.39-1.98,4.02-2.62c1.23-.48,3.09-1.05,6.5-1.21,3.69-.17,4.8-.2,14.14-.2m0-6.31c-9.51,0-10.7.04-14.43.21-3.73.17-6.27.76-8.5,1.63-2.3.89-4.25,2.09-6.2,4.04-1.95,1.95-3.14,3.9-4.04,6.2-.87,2.23-1.46,4.77-1.63,8.5-.17,3.73-.21,4.92-.21,14.43s.04,10.7.21,14.43c.17,3.73.76,6.27,1.63,8.5.89,2.3,2.09,4.25,4.04,6.2,1.95,1.95,3.9,3.14,6.2,4.04,2.23.87,4.77,1.46,8.5,1.63,3.73.17,4.93.21,14.43.21s10.7-.04,14.43-.21c3.73-.17,6.27-.76,8.5-1.63,2.3-.89,4.25-2.09,6.2-4.04,1.95-1.95,3.14-3.9,4.04-6.2.87-2.23,1.46-4.77,1.63-8.5.17-3.73.21-4.92.21-14.43s-.04-10.7-.21-14.43c-.17-3.73-.76-6.27-1.63-8.5-.89-2.3-2.09-4.25-4.04-6.2-1.95-1.95-3.9-3.14-6.2-4.04-2.23-.87-4.77-1.46-8.5-1.63-3.73-.17-4.92-.21-14.43-.21h0Z"/><path d="m35,17.03c-9.93,0-17.97,8.05-17.97,17.97s8.05,17.97,17.97,17.97,17.97-8.05,17.97-17.97-8.05-17.97-17.97-17.97Zm0,29.64c-6.44,0-11.67-5.22-11.67-11.67s5.22-11.67,11.67-11.67,11.67,5.22,11.67,11.67-5.22,11.67-11.67,11.67Z"/><circle cx="53.68" cy="16.32" r="4.2"/></g></g></svg>