<?xml version="1.0" encoding="utf-8"?>
<!-- Generator: Adobe Illustrator 27.4.0, SVG Export Plug-In . SVG Version: 6.00 Build 0)  -->
<svg version="1.1" id="レイヤー_1" xmlns="http://www.w3.org/2000/svg" xmlns:xlink="http://www.w3.org/1999/xlink" x="0px"
	 y="0px" viewBox="0 0 24 25.3" style="enable-background:new 0 0 24 25.3;" xml:space="preserve">
<style type="text/css">
	.st0{clip-path:url(#SVGID_00000159440427153037485620000011070977019924736940_);}
	.st1{fill:#231815;}
</style>
<g transform="translate(0 0)">
	<g>
		<defs>
			<rect id="SVGID_1_" y="0" width="24" height="25.3"/>
		</defs>
		<clipPath id="SVGID_00000095304799101318734430000011060046583149701308_">
			<use xlink:href="#SVGID_1_"  style="overflow:visible;"/>
		</clipPath>
		<g transform="translate(0 0)" style="clip-path:url(#SVGID_00000095304799101318734430000011060046583149701308_);">
			<path class="st1" d="M10.3,20.7c-5.7,0-10.4-4.6-10.4-10.3S4.5,0,10.2,0s10.4,4.6,10.4,10.3c0,0,0,0,0,0
				C20.6,16,16,20.6,10.3,20.7z M10.3,1.2c-5,0-9.1,4.1-9.2,9.1c0,5,4.1,9.1,9.1,9.2c5,0,9.1-4.1,9.2-9.1c0,0,0,0,0,0
				C19.4,5.3,15.3,1.2,10.3,1.2L10.3,1.2z"/>
			<path class="st1" d="M23.2,25.3l-6.9-7l0.9-0.9l6.9,7L23.2,25.3z"/>
		</g>
	</g>
</g>
</svg>
